<svg width="140" height="140" viewBox="0 0 140 140" fill="none" xmlns="http://www.w3.org/2000/svg">
<g transform="translate(-19 -16.5)">
<path d="M53.7239 40.858C54.2301 38.3807 57.7699 38.3807 58.2761 40.858C59.3946 46.3294 63.6706 50.6054 69.142 51.7239C71.6193 52.2301 71.6193 55.7699 69.142 56.2761C63.6706 57.3946 59.3946 61.6706 58.2761 67.142C57.7699 69.6193 54.2301 69.6193 53.7239 67.142C52.6054 61.6706 48.3294 57.3946 42.858 56.2761C40.3807 55.7699 40.3807 52.2301 42.858 51.7239C48.3294 50.6054 52.6054 46.3294 53.7239 40.858Z" fill="#8800FF"/>
<path d="M88.2893 132C81.0075 130.422 73.6678 127.287 66.872 122.56C48.1306 109.522 39.4388 88.4776 44.3528 71.4807M124.684 69.0113C137.44 84.4714 137.999 101.114 133.028 108.522C123.086 123.339 103.203 113.461 103.203 113.461M75.862 47.3649C86.4144 46.429 98.1025 49.0713 108.771 55.4294M79.8077 103.128C77.3809 103.201 75.394 101.227 75.4676 98.8157C75.6627 92.4186 78.3075 86.3369 82.8624 81.8114L121.028 43.8931C124.91 40.0356 131.206 40.0356 135.088 43.8931C138.971 47.7506 138.971 54.005 135.088 57.8625L96.9224 95.7807C92.3677 100.306 86.2462 102.934 79.8077 103.128Z" stroke="#FF0099" stroke-width="7" stroke-linecap="round"/>
</g>
</svg>
